#N canvas 315 239 454 304 12;
#X obj 65 49 inlet;
#X obj 130 50 inlet;
#X obj 205 49 inlet;
#X obj 270 50 inlet;
#X obj 231 124 &&;
#X obj 160 176 &&;
#X obj 126 230 &&;
#X obj 124 260 outlet;
#X connect 0 0 6 0;
#X connect 1 0 5 0;
#X connect 2 0 4 0;
#X connect 3 0 4 1;
#X connect 4 0 5 1;
#X connect 5 0 6 1;
#X connect 6 0 7 0;
