#N canvas 241 101 647 527 12;
#X obj 165 16 inlet;
#X obj 424 386 v freeboxes_next_pointer;
#X obj 319 483 tabwrite freeboxes;
#X obj 388 347 t f b;
#X obj 423 419 t f f;
#X obj 472 325 + 1;
#X obj 472 353 % 1000;
#X obj 167 63 t f f;
#X obj 165 155 spigot;
#X obj 165 200 t f f;
#X obj 148 270 makefilename square%d;
#X msg 143 328 \; \$1 pos 0 0;
#X obj 208 108 >= 0;
#X connect 0 0 7 0;
#X connect 1 0 4 0;
#X connect 3 0 2 0;
#X connect 3 1 1 0;
#X connect 4 0 5 0;
#X connect 4 1 2 1;
#X connect 5 0 6 0;
#X connect 6 0 1 0;
#X connect 7 0 8 0;
#X connect 7 1 12 0;
#X connect 8 0 9 0;
#X connect 9 0 10 0;
#X connect 9 1 3 0;
#X connect 10 0 11 0;
#X connect 12 0 8 1;
