#N canvas 283 243 454 304 12;
#X obj 179 28 inlet;
#X obj 179 77 t b b b b;
#X obj 59 144 v currentpiece_box0;
#X obj 131 173 v currentpiece_box1;
#X obj 222 145 v currentpiece_box2;
#X obj 290 173 v currentpiece_box3;
#X obj 59 257 outlet;
#X obj 131 257 outlet;
#X obj 222 258 outlet;
#X obj 290 258 outlet;
#X connect 0 0 1 0;
#X connect 1 0 2 0;
#X connect 1 1 3 0;
#X connect 1 2 4 0;
#X connect 1 3 5 0;
#X connect 2 0 6 0;
#X connect 3 0 7 0;
#X connect 4 0 8 0;
#X connect 5 0 9 0;
