#N canvas 146 88 681 504 12;
#X obj 163 33 inlet;
#X obj 163 63 unpack f f;
#X obj 191 338 * 10;
#X obj 159 363 +;
#X obj 171 398 tabread occupying_boxes;
#X obj 109 156 >= 0;
#X obj 158 157 < 10;
#X obj 334 153 < 20;
#X obj 204 198 and4;
#X obj 190 308 f;
#X obj 136 308 f;
#X obj 151 268 t b b;
#X msg 388 369 1000;
#X obj 199 227 select 1 0;
#X msg 231 159 1;
#X obj 170 430 t f f;
#X obj 169 467 outlet;
#X obj 125 119 t f f f f;
#X obj 240 118 t f f f f;
#X obj 403 234 pack f f f;
#X msg 403 270 position \$2 \$3 occupied? \$1;
#X obj 411 308 print;
#X connect 0 0 1 0;
#X connect 1 0 17 0;
#X connect 1 1 18 0;
#X connect 2 0 3 1;
#X connect 3 0 4 0;
#X connect 4 0 15 0;
#X connect 5 0 8 0;
#X connect 6 0 8 1;
#X connect 7 0 8 3;
#X connect 8 0 13 0;
#X connect 9 0 2 0;
#X connect 10 0 3 0;
#X connect 11 0 10 0;
#X connect 11 1 9 0;
#X connect 12 0 15 0;
#X connect 13 0 11 0;
#X connect 13 1 12 0;
#X connect 14 0 8 2;
#X connect 15 0 16 0;
#X connect 15 1 19 0;
#X connect 17 0 5 0;
#X connect 17 1 6 0;
#X connect 17 2 10 1;
#X connect 17 3 19 1;
#X connect 18 0 14 0;
#X connect 18 1 7 0;
#X connect 18 2 9 1;
#X connect 18 3 19 2;
#X connect 19 0 20 0;
