#N canvas 209 154 458 297 12;
#X obj 171 33 inlet;
#X obj 73 135 tabread boxes_x;
#X obj 246 135 tabread boxes_y;
#X obj 171 72 t f f;
#X obj 176 191 pack f f;
#X msg 175 226 \$1 \$2;
#X obj 177 264 outlet;
#X connect 0 0 3 0;
#X connect 1 0 4 0;
#X connect 2 0 4 1;
#X connect 3 0 1 0;
#X connect 3 1 2 0;
#X connect 4 0 5 0;
#X connect 5 0 6 0;
