#N canvas 170 118 698 509 12;
#X obj 196 188 v freeboxes_first_pointer;
#X obj 196 40 inlet;
#X obj 196 247 t f f;
#X obj 231 289 tabread freeboxes;
#X obj 230 115 + 1;
#X obj 230 147 % 1000;
#X obj 231 413 outlet;
#X obj 229 342 t f f;
#X obj 263 378 print newbox;
#X connect 0 0 2 0;
#X connect 1 0 0 0;
#X connect 2 0 4 0;
#X connect 2 1 3 0;
#X connect 3 0 7 0;
#X connect 4 0 5 0;
#X connect 5 0 0 0;
#X connect 7 0 6 0;
#X connect 7 1 8 0;
