#N canvas 0 0 462 384 12;
#X obj 97 62 inlet;
#X obj 237 64 inlet;
#X obj 235 103 unpack f f;
#X obj 112 180 f;
#X obj 229 182 f;
#X obj 95 100 t b b;
#X obj 127 224 pack f f;
#X msg 137 259 \$1 \$2;
#X obj 145 320 outlet;
#X connect 0 0 5 0;
#X connect 1 0 2 0;
#X connect 2 0 3 1;
#X connect 2 1 4 1;
#X connect 3 0 6 0;
#X connect 4 0 6 1;
#X connect 5 0 3 0;
#X connect 5 1 4 0;
#X connect 6 0 7 0;
#X connect 7 0 8 0;
