#N canvas -44 21 1011 709 12;
#N canvas 114 48 980 709 init 0;
#X obj 274 9 inlet;
#X obj 640 160 table boxes_x 300;
#X obj 640 185 table boxes_y 300;
#X obj 12 146 v freeboxes_next_pointer;
#X obj 12 169 v freeboxes_first_pointer;
#X obj 639 102 table freeboxes 1000;
#X obj 640 218 table occupying_boxes 210;
#X obj 15 224 v currentpiece_box0;
#X obj 16 252 v currentpiece_box1;
#X obj 17 279 v currentpiece_box2;
#X obj 16 307 v currentpiece_box3;
#X obj 17 355 v piece_exists;
#X obj 15 449 v nextpiece_type;
#X obj 14 472 v currentpiece_rotation;
#X msg 15 87 0;
#X obj 15 120 t f f;
#X msg 18 333 0;
#X msg 236 163 0;
#X obj 234 199 f;
#X obj 303 200 + 1;
#X obj 233 236 t f f f;
#X obj 232 297 spigot;
#X obj 260 325 t b f f f;
#X obj 626 602 tabwrite occupying_boxes;
#X obj 648 512 t b f;
#X msg 520 283 200 \, 201 \, 202 \, 203 \, 204 \, 205 \, 206 \, 207
\, 208 \, 209;
#X obj 277 267 < 200;
#X obj 836 448 t b f;
#X msg 822 506 1000;
#X obj 13 568 v boxsize;
#X obj 92 503 t b b b;
#X obj 99 569 v xoffset;
#X msg 110 542 100;
#X msg 158 541 100;
#X obj 178 571 v yoffset;
#X obj 643 253 table piece_colors;
#X msg 628 572 -1;
#X obj 618 419 makefilename square%d;
#X msg 651 454 \; \$1 pos 0 0;
#X obj 288 598 outlet;
#X obj 355 601 print INIT;
#X obj 297 522 t b b;
#X obj 18 384 random 7;
#X obj 17 419 + 1;
#X obj 249 377 freebox;
#X msg 11 541 20;
#X msg 611 360 20;
#X obj 611 389 v minheight;
#X obj 419 175 v xoffset;
#X obj 497 175 v yoffset;
#X obj 508 204 * 10;
#X obj 556 206 * 20;
#X obj 539 150 v boxsize;
#X obj 472 147 t b b b;
#X obj 369 252 pack f f f f;
#X msg 356 314 \; bgcanvas vis_size \$3 \$4 \; bgcanvas pos \$1 \$2
;
#X msg 402 100 \; piece_colors 0 13 14 15 16 17 18 19;
#X msg 494 24 \; gameovercanvas pos 30 0;
#X obj 257 38 t b b b b b b b b b b b b;
#X obj 451 72 s startmusic;
#X connect 0 0 58 0;
#X connect 14 0 15 0;
#X connect 15 0 4 0;
#X connect 15 1 3 0;
#X connect 16 0 11 0;
#X connect 17 0 18 0;
#X connect 18 0 20 0;
#X connect 19 0 18 1;
#X connect 20 0 21 0;
#X connect 20 1 26 0;
#X connect 20 2 19 0;
#X connect 21 0 22 0;
#X connect 22 0 18 0;
#X connect 22 1 44 0;
#X connect 22 2 24 0;
#X connect 22 3 37 0;
#X connect 24 0 36 0;
#X connect 24 1 23 1;
#X connect 25 0 27 0;
#X connect 26 0 21 1;
#X connect 27 0 28 0;
#X connect 27 1 23 1;
#X connect 28 0 23 0;
#X connect 30 0 45 0;
#X connect 30 1 32 0;
#X connect 30 2 33 0;
#X connect 32 0 31 0;
#X connect 33 0 34 0;
#X connect 36 0 23 0;
#X connect 37 0 38 0;
#X connect 41 0 39 0;
#X connect 41 1 40 0;
#X connect 42 0 43 0;
#X connect 43 0 12 0;
#X connect 45 0 29 0;
#X connect 46 0 47 0;
#X connect 48 0 54 0;
#X connect 49 0 54 1;
#X connect 50 0 54 2;
#X connect 51 0 54 3;
#X connect 52 0 51 0;
#X connect 52 0 50 0;
#X connect 53 0 48 0;
#X connect 53 1 49 0;
#X connect 53 2 52 0;
#X connect 54 0 55 0;
#X connect 58 0 41 0;
#X connect 58 1 25 0;
#X connect 58 2 17 0;
#X connect 58 3 16 0;
#X connect 58 4 42 0;
#X connect 58 5 14 0;
#X connect 58 6 53 0;
#X connect 58 7 56 0;
#X connect 58 8 46 0;
#X connect 58 9 30 0;
#X connect 58 10 57 0;
#X connect 58 11 59 0;
#X restore 174 152 pd init;
#N canvas 0 0 494 344 game_over 0;
#X obj 156 30 inlet;
#X obj 164 235 outlet;
#X obj 130 162 print GAMEOVER;
#X msg 191 87 \; gameovercanvas pos 150 285;
#X obj 282 182 s stopmusic;
#X connect 0 0 2 0;
#X connect 0 0 3 0;
#X connect 0 0 4 0;
#X restore 543 228 pd game_over;
#N canvas 0 0 502 352 check_piece_exists 0;
#X obj 69 264 outlet;
#X obj 310 267 outlet;
#X obj 196 37 inlet;
#X obj 195 67 v piece_exists;
#X obj 181 169 select 1 0;
#X obj 192 110 t f f;
#X obj 226 142 print PIECE_EXISTS;
#X floatatom 112 127 5 0 0 0 - - -;
#X connect 2 0 3 0;
#X connect 3 0 5 0;
#X connect 3 0 7 0;
#X connect 4 0 0 0;
#X connect 4 1 1 0;
#X connect 5 0 4 0;
#X connect 5 1 6 0;
#X restore 174 202 pd check_piece_exists;
#X text 179 229 true;
#X text 296 230 false;
#N canvas 52 79 869 571 drop_piece 0;
#X obj 130 8 inlet;
#X obj 63 519 outlet;
#X obj 161 105 get_currentpiece_boxes;
#X obj 95 230 get_box_position;
#X obj 240 230 get_box_position;
#X obj 396 231 get_box_position;
#X obj 533 232 get_box_position;
#X obj 61 176 t f f;
#X obj 205 192 t f f;
#X obj 361 194 t f f;
#X obj 498 187 t f f;
#X obj 129 43 t b b b;
#X obj 3 305 set_occupying_box;
#X obj 158 304 set_occupying_box;
#X obj 310 304 set_occupying_box;
#X obj 459 302 set_occupying_box;
#X msg 543 37 0;
#X obj 515 80 v piece_exists;
#X obj 562 425 max;
#X obj 558 275 t a a;
#X obj 405 273 t a a;
#X obj 255 276 t a a;
#X obj 100 279 t a a;
#X obj 557 330 unpack f f;
#X obj 404 330 unpack f f;
#X obj 252 331 unpack f f;
#X obj 99 331 unpack f f;
#X obj 477 426 max;
#X obj 385 423 max;
#X obj 632 364 t f f;
#X obj 478 368 t f f;
#X obj 322 366 t f f;
#X obj 171 369 t f f;
#X obj 117 420 min;
#X obj 209 423 min;
#X obj 294 422 min;
#X obj 388 488 outlet;
#X obj 153 486 s candidate_min_height;
#X obj 117 452 t f f f;
#X obj 178 517 print DROP_PIECE_LEFT;
#X obj 74 484 f;
#X connect 0 0 11 0;
#X connect 2 0 7 0;
#X connect 2 1 8 0;
#X connect 2 2 9 0;
#X connect 2 3 10 0;
#X connect 3 0 22 0;
#X connect 4 0 21 0;
#X connect 5 0 20 0;
#X connect 6 0 19 0;
#X connect 7 0 12 0;
#X connect 7 1 3 0;
#X connect 8 0 13 0;
#X connect 8 1 4 0;
#X connect 9 0 14 0;
#X connect 9 1 5 0;
#X connect 10 0 15 0;
#X connect 10 1 6 0;
#X connect 11 0 40 0;
#X connect 11 1 2 0;
#X connect 11 2 16 0;
#X connect 16 0 17 0;
#X connect 18 0 27 1;
#X connect 19 0 23 0;
#X connect 19 1 15 1;
#X connect 20 0 24 0;
#X connect 20 1 14 1;
#X connect 21 0 25 0;
#X connect 21 1 13 1;
#X connect 22 0 26 0;
#X connect 22 1 12 1;
#X connect 23 1 29 0;
#X connect 24 1 30 0;
#X connect 25 1 31 0;
#X connect 26 1 32 0;
#X connect 27 0 28 1;
#X connect 28 0 36 0;
#X connect 29 0 35 1;
#X connect 29 1 18 1;
#X connect 30 0 35 0;
#X connect 30 1 18 0;
#X connect 31 0 34 0;
#X connect 31 1 27 0;
#X connect 32 0 33 0;
#X connect 32 1 28 0;
#X connect 33 0 38 0;
#X connect 34 0 33 1;
#X connect 35 0 34 1;
#X connect 38 0 40 1;
#X connect 38 1 37 0;
#X connect 38 2 39 0;
#X connect 40 0 1 0;
#X restore 173 358 pd drop_piece;
#N canvas 102 28 941 685 chek_line_exists 0;
#X obj 135 1 inlet;
#X obj 484 25 inlet;
#X obj 299 58 f;
#X obj 347 62 + 1;
#X obj 298 170 <=;
#X obj 297 208 select 1;
#X obj 297 244 f;
#X obj 296 304 t b f b;
#X msg 405 446 1;
#X obj 307 477 f;
#X msg 321 332 0 \$1 \, 1 \$1 \, 2 \$1 \, 3 \$1 \, 4 \$1 \, 5 \$1 \,
6 \$1 \, 7 \$1 \, 8 \$1 \, 9 \$1;
#X obj 321 390 == -1;
#X obj 321 416 select 1;
#X msg 321 445 0;
#X obj 297 276 t f f;
#X obj 139 467 f;
#X obj 298 92 t f f;
#X obj 49 607 outlet;
#X obj 596 618 outlet;
#X obj 705 614 print LINE_NOT_EXIST;
#X obj 49 571 t f f;
#X obj 741 567 t b b;
#X obj 120 603 print CHECK_LINE_EXIST_LEFT;
#X obj 138 28 t f f;
#X obj 65 93 print beginning_line_check;
#X obj 298 124 t f f f;
#X obj 360 170 print checking_line;
#X obj 306 505 select 1 0;
#X obj 321 362 get_occupying_box;
#X connect 0 0 23 0;
#X connect 1 0 4 1;
#X connect 2 0 16 0;
#X connect 3 0 2 1;
#X connect 4 0 5 0;
#X connect 5 0 6 0;
#X connect 5 1 21 0;
#X connect 6 0 14 0;
#X connect 7 0 9 0;
#X connect 7 1 10 0;
#X connect 7 2 8 0;
#X connect 8 0 9 1;
#X connect 9 0 27 0;
#X connect 10 0 28 0;
#X connect 11 0 12 0;
#X connect 12 0 13 0;
#X connect 13 0 9 1;
#X connect 14 0 7 0;
#X connect 14 1 15 1;
#X connect 15 0 20 0;
#X connect 16 0 25 0;
#X connect 16 1 3 0;
#X connect 20 0 17 0;
#X connect 20 1 22 0;
#X connect 21 0 18 0;
#X connect 21 1 19 0;
#X connect 23 0 2 0;
#X connect 23 1 24 0;
#X connect 25 0 4 0;
#X connect 25 1 6 1;
#X connect 25 2 26 0;
#X connect 27 0 15 0;
#X connect 27 1 2 0;
#X connect 28 0 11 0;
#X restore 173 410 pd chek_line_exists;
#X text 283 431 false;
#X text 178 431 #line;
#N canvas 21 5 963 694 delete_line 0;
#X obj 316 5 inlet;
#X obj 61 604 outlet;
#X obj 316 33 t b f f;
#X obj 45 309 + 1;
#X obj 10 336 f;
#X obj 341 64 t f f;
#X msg 420 94 0 \$1 \, 1 \$1 \, 2 \$1 \, 3 \$1 \, 4 \$1 \, 5 \$1 \,
6 \$1 \, 7 \$1 \, 8 \$1 \, 9 \$1;
#X obj 420 119 t b a a;
#X obj 345 183 set_occupying_box;
#X msg 345 152 -1;
#X obj 133 47 f;
#X obj 188 48 - 1;
#X obj 133 83 t f f;
#X obj 174 174 >= 0;
#X obj 130 202 spigot;
#X obj 174 229 t b f;
#X obj 133 11 - 1;
#X msg 209 256 0 \$1 \, 1 \$1 \, 2 \$1 \, 3 \$1 \, 4 \$1 \, 5 \$1 \,
6 \$1 \, 7 \$1 \, 8 \$1 \, 9 \$1;
#X obj 229 489 hold2;
#X obj 209 332 t f f;
#X obj 252 359 >= 0;
#X obj 209 385 spigot;
#X obj 209 282 t a a a;
#X obj 308 486 hold2;
#X obj 439 428 t a a;
#X obj 556 488 hold2;
#X obj 469 460 t f b;
#X obj 448 518 set_occupying_box;
#X obj 308 450 t b f;
#X obj 209 409 t b f f;
#X msg 182 486 -1;
#X obj 193 442 t b b;
#X obj 158 520 set_occupying_box;
#X obj 310 521 set_box_position;
#X obj 492 187 freebox;
#X obj 492 153 get_occupying_box;
#X obj 209 307 get_occupying_box;
#X obj 133 117 t f f b;
#X obj 189 147 v minheight;
#X obj 437 394 movebox;
#X obj 478 323 loadbang;
#X msg 483 361 0;
#X connect 0 0 2 0;
#X connect 2 0 4 0;
#X connect 2 1 5 0;
#X connect 2 2 3 0;
#X connect 3 0 4 1;
#X connect 4 0 1 0;
#X connect 5 0 16 0;
#X connect 5 1 6 0;
#X connect 6 0 7 0;
#X connect 7 0 9 0;
#X connect 7 1 8 1;
#X connect 7 2 35 0;
#X connect 9 0 8 0;
#X connect 10 0 12 0;
#X connect 11 0 10 1;
#X connect 12 0 37 0;
#X connect 12 1 11 0;
#X connect 13 0 14 1;
#X connect 14 0 15 0;
#X connect 15 0 10 0;
#X connect 15 1 17 0;
#X connect 16 0 10 0;
#X connect 17 0 22 0;
#X connect 18 0 32 1;
#X connect 19 0 21 0;
#X connect 19 1 20 0;
#X connect 20 0 21 1;
#X connect 21 0 29 0;
#X connect 22 0 36 0;
#X connect 22 1 18 1;
#X connect 22 2 39 0;
#X connect 23 0 33 0;
#X connect 24 0 23 1;
#X connect 24 1 25 1;
#X connect 25 0 27 1;
#X connect 26 0 27 0;
#X connect 26 1 25 0;
#X connect 28 0 23 0;
#X connect 28 1 33 1;
#X connect 29 0 31 0;
#X connect 29 1 28 0;
#X connect 29 2 26 0;
#X connect 30 0 32 0;
#X connect 31 0 30 0;
#X connect 31 1 18 0;
#X connect 35 0 34 0;
#X connect 36 0 19 0;
#X connect 37 0 14 0;
#X connect 37 1 13 0;
#X connect 37 2 38 0;
#X connect 38 0 13 1;
#X connect 39 0 24 0;
#X connect 40 0 41 0;
#X connect 41 0 39 1;
#X restore 122 478 pd delete_line;
#X text 335 500 true;
#X text 441 503 false;
#N canvas 186 115 490 463 check_max_height 0;
#X obj 55 40 inlet;
#X obj 66 376 outlet;
#X obj 343 379 outlet;
#X obj 279 148 min;
#X obj 317 111 v minheight;
#X obj 282 45 r candidate_min_height;
#X obj 282 76 t f b;
#X obj 95 147 v minheight;
#X obj 95 195 <= 0;
#X obj 93 294 select 1 0;
#X obj 199 276 print CHECK_MAX:HEIGHT;
#X obj 92 242 t f f;
#X connect 0 0 7 0;
#X connect 3 0 4 0;
#X connect 4 0 3 1;
#X connect 5 0 6 0;
#X connect 6 0 3 0;
#X connect 6 1 4 0;
#X connect 7 0 8 0;
#X connect 8 0 11 0;
#X connect 9 0 1 0;
#X connect 9 1 2 0;
#X connect 11 0 9 0;
#X connect 11 1 10 0;
#X restore 331 481 pd check_max_height;
#N canvas 198 161 673 515 wait 0;
#X obj 46 58 inlet;
#X obj 32 343 outlet;
#X obj 28 166 delay 300;
#X obj 267 7 keyname;
#X obj 305 111 t a b;
#X obj 342 146 v piece_exists;
#X obj 305 183 spigot;
#X msg 275 308 0;
#X msg 337 306 1;
#X msg 395 312 2;
#X obj 79 307 print WAITED;
#X obj 39 261 t b b;
#X obj 297 362 try_move_piece;
#X obj 42 94 t b b;
#X obj 60 223 print WAITING...;
#X obj 272 78 symbol;
#X obj 265 49 select 1;
#X obj 282 273 select Down Left Right Up;
#X obj 443 364 try_rotate_piece;
#X obj 132 21 r pause;
#X obj 132 64 tgl 15 0 empty empty empty 0 -6 0 8 -262144 -1 -1 0 1
;
#X obj 132 94 select 1 0;
#X msg 131 133 stop;
#X msg 180 133 bang;
#X connect 0 0 13 0;
#X connect 2 0 11 0;
#X connect 3 0 16 0;
#X connect 3 1 15 1;
#X connect 4 0 6 0;
#X connect 4 1 5 0;
#X connect 5 0 6 1;
#X connect 6 0 17 0;
#X connect 7 0 12 0;
#X connect 8 0 12 0;
#X connect 9 0 12 0;
#X connect 11 0 1 0;
#X connect 11 1 10 0;
#X connect 13 0 2 0;
#X connect 13 1 14 0;
#X connect 15 0 4 0;
#X connect 16 0 15 0;
#X connect 17 0 7 0;
#X connect 17 1 8 0;
#X connect 17 2 9 0;
#X connect 17 3 18 0;
#X connect 19 0 20 0;
#X connect 20 0 21 0;
#X connect 21 0 22 0;
#X connect 21 1 23 0;
#X connect 22 0 2 0;
#X connect 23 0 2 0;
#X restore 324 557 pd wait;
#N canvas 316 12 506 669 try_movedown 0;
#X obj 177 44 inlet;
#X obj 67 548 outlet;
#X obj 344 551 outlet;
#X obj 177 193 try_move_piece;
#X msg 176 155 0;
#X obj 173 300 select 1 0;
#X obj 213 264 print MOVE_DOWN;
#X obj 176 224 t f f;
#X connect 0 0 4 0;
#X connect 3 0 7 0;
#X connect 4 0 3 0;
#X connect 5 0 1 0;
#X connect 5 1 2 0;
#X connect 7 0 5 0;
#X connect 7 1 6 0;
#X restore 175 281 pd try_movedown;
#X text 149 299 success;
#X text 279 302 fail;
#N canvas 25 0 823 709 try_create_piece 0;
#X obj 299 12 inlet;
#X obj 143 141 t b b b b;
#X obj 140 290 v currentpiece_box1;
#X obj 25 260 v currentpiece_box0;
#X obj 266 256 v currentpiece_box2;
#X obj 325 290 v currentpiece_box3;
#X obj 548 31 v nextpiece_type;
#X obj 411 134 random 7;
#X obj 411 163 + 1;
#X msg 486 134 0;
#X obj 486 164 v currentpiece_rotation;
#X msg 546 192 \$1 0;
#X obj 545 260 unpack f f f f f f f f;
#X obj 503 290 + 5;
#X obj 576 288 + 5;
#X obj 647 289 + 5;
#X obj 720 289 + 5;
#X obj 503 314 pack f f;
#X obj 576 314 pack f f;
#X obj 647 314 pack f f;
#X obj 720 314 pack f f;
#X msg 503 342 \$1 \$2;
#X msg 576 342 \$1 \$2;
#X msg 647 343 \$1 \$2;
#X msg 720 343 \$1 \$2;
#X obj 497 486 == -1;
#X obj 572 486 == -1;
#X obj 647 487 == -1;
#X obj 722 487 == -1;
#X obj 594 525 and4;
#X obj 719 377 t a a;
#X obj 647 375 t a a;
#X obj 576 378 t a a;
#X obj 501 377 t a a;
#X obj 432 101 t b b;
#X obj 581 560 select 1 0;
#X obj 15 553 hold2;
#X obj 89 552 hold2;
#X obj 151 554 hold2;
#X obj 225 553 hold2;
#X obj 113 498 t b b b b;
#X obj 25 224 t f f f;
#X obj 124 227 t f f f;
#X obj 228 230 t f f f;
#X obj 326 230 t f f f;
#X obj 184 314 t f b b;
#X obj 371 344 v boxsize;
#X obj 215 340 v nextpiece_type;
#X obj 220 389 tabread piece_colors;
#X obj 229 610 set_box_position;
#X obj 151 584 set_box_position;
#X obj 91 609 set_box_position;
#X obj 15 584 set_box_position;
#X obj 15 352 makefilename square%d;
#X obj 183 413 pack s f f;
#X msg 183 437 \; \$1 color \$2 \; \$1 size \$3;
#X obj 242 664 outlet;
#X obj 520 663 outlet;
#X obj 299 663 print CREATE_SUCCESS;
#X obj 577 662 print CREATE_FAIL;
#X obj 530 628 t b b;
#X obj 296 47 t b b b b b;
#X obj 277 141 v piece_exists;
#X msg 272 112 1;
#X obj 21 192 get_new_box;
#X obj 125 192 get_new_box;
#X obj 227 191 get_new_box;
#X obj 326 192 get_new_box;
#X obj 497 427 get_occupying_box;
#X obj 572 454 get_occupying_box;
#X obj 645 425 get_occupying_box;
#X obj 720 452 get_occupying_box;
#X obj 548 138 t f f;
#X obj 605 202 v currentpiece_type;
#X obj 545 228 piece;
#X obj 214 364 - 1;
#X obj 458 577 t b b b b;
#N canvas 139 12 700 661 show_next_piece 0;
#X obj 139 18 inlet;
#X obj 73 97 v nextpiece_type;
#X msg 72 156 \$1 0;
#X obj 72 186 piece;
#X obj 367 131 t b b b;
#X obj 136 53 t b b;
#X obj 419 168 v boxsize;
#X obj 397 206 v xoffset;
#X obj 368 232 v yoffset;
#X obj 370 319 +;
#X obj 417 317 +;
#X obj 68 232 unpack f f f f f f f f;
#X obj 38 330 *;
#X obj 71 330 *;
#X obj 105 326 *;
#X obj 137 331 *;
#X obj 172 330 *;
#X obj 205 330 *;
#X obj 238 331 *;
#X obj 271 331 *;
#X obj 399 279 * 13;
#X obj 439 279 * 2;
#X obj 38 371 +;
#X obj 72 370 +;
#X obj 105 370 +;
#X obj 139 369 +;
#X obj 173 369 +;
#X obj 206 369 +;
#X obj 239 370 +;
#X obj 274 366 +;
#X obj 73 126 t f f;
#X obj 41 439 pack f f f f;
#X obj 148 439 pack f f f f;
#X obj 253 438 pack f f f f;
#X obj 360 438 pack f f f f;
#X obj 134 155 - 1;
#X obj 133 185 tabread piece_colors;
#X msg 29 496 \; square200 size \$4 \; square200 color \$3 \; square200
pos \$1 \$2;
#X msg 194 496 \; square201 size \$4 \; square201 color \$3 \; square201
pos \$1 \$2;
#X msg 357 495 \; square202 size \$4 \; square202 color \$3 \; square202
pos \$1 \$2;
#X msg 524 495 \; square203 size \$4 \; square203 color \$3 \; square203
pos \$1 \$2;
#X connect 0 0 5 0;
#X connect 1 0 30 0;
#X connect 2 0 3 0;
#X connect 3 0 11 0;
#X connect 4 0 8 0;
#X connect 4 1 7 0;
#X connect 4 2 6 0;
#X connect 5 0 1 0;
#X connect 5 1 4 0;
#X connect 6 0 12 1;
#X connect 6 0 13 1;
#X connect 6 0 14 1;
#X connect 6 0 15 1;
#X connect 6 0 16 1;
#X connect 6 0 17 1;
#X connect 6 0 18 1;
#X connect 6 0 19 1;
#X connect 6 0 20 0;
#X connect 6 0 21 0;
#X connect 6 0 31 3;
#X connect 6 0 32 3;
#X connect 6 0 33 3;
#X connect 6 0 34 3;
#X connect 7 0 10 0;
#X connect 8 0 9 0;
#X connect 9 0 22 1;
#X connect 9 0 24 1;
#X connect 9 0 26 1;
#X connect 9 0 28 1;
#X connect 10 0 23 1;
#X connect 10 0 25 1;
#X connect 10 0 27 1;
#X connect 10 0 29 1;
#X connect 11 0 12 0;
#X connect 11 1 13 0;
#X connect 11 2 14 0;
#X connect 11 3 15 0;
#X connect 11 4 16 0;
#X connect 11 5 17 0;
#X connect 11 6 18 0;
#X connect 11 7 19 0;
#X connect 12 0 22 0;
#X connect 13 0 23 0;
#X connect 14 0 24 0;
#X connect 15 0 25 0;
#X connect 16 0 26 0;
#X connect 17 0 27 0;
#X connect 18 0 28 0;
#X connect 19 0 29 0;
#X connect 20 0 9 1;
#X connect 21 0 10 1;
#X connect 22 0 31 0;
#X connect 23 0 31 1;
#X connect 24 0 32 0;
#X connect 25 0 32 1;
#X connect 26 0 33 0;
#X connect 27 0 33 1;
#X connect 28 0 34 0;
#X connect 29 0 34 1;
#X connect 30 0 2 0;
#X connect 30 1 35 0;
#X connect 31 0 37 0;
#X connect 32 0 38 0;
#X connect 33 0 39 0;
#X connect 34 0 40 0;
#X connect 35 0 36 0;
#X connect 36 0 34 2;
#X connect 36 0 33 2;
#X connect 36 0 32 2;
#X connect 36 0 31 2;
#X restore 620 621 pd show_next_piece;
#X obj 245 638 t b b b;
#X connect 0 0 61 0;
#X connect 1 0 64 0;
#X connect 1 1 65 0;
#X connect 1 2 66 0;
#X connect 1 3 67 0;
#X connect 6 0 72 0;
#X connect 7 0 8 0;
#X connect 8 0 6 0;
#X connect 9 0 10 0;
#X connect 11 0 74 0;
#X connect 12 0 13 0;
#X connect 12 1 17 1;
#X connect 12 2 14 0;
#X connect 12 3 18 1;
#X connect 12 4 15 0;
#X connect 12 5 19 1;
#X connect 12 6 16 0;
#X connect 12 7 20 1;
#X connect 13 0 17 0;
#X connect 14 0 18 0;
#X connect 15 0 19 0;
#X connect 16 0 20 0;
#X connect 17 0 21 0;
#X connect 18 0 22 0;
#X connect 19 0 23 0;
#X connect 20 0 24 0;
#X connect 21 0 33 0;
#X connect 22 0 32 0;
#X connect 23 0 31 0;
#X connect 24 0 30 0;
#X connect 25 0 29 0;
#X connect 26 0 29 1;
#X connect 27 0 29 2;
#X connect 28 0 29 3;
#X connect 29 0 35 0;
#X connect 30 0 71 0;
#X connect 30 1 39 1;
#X connect 31 0 70 0;
#X connect 31 1 38 1;
#X connect 32 0 69 0;
#X connect 32 1 37 1;
#X connect 33 0 68 0;
#X connect 33 1 36 1;
#X connect 34 0 7 0;
#X connect 34 1 9 0;
#X connect 35 0 76 0;
#X connect 35 1 60 0;
#X connect 36 0 52 0;
#X connect 37 0 51 0;
#X connect 38 0 50 0;
#X connect 39 0 49 0;
#X connect 40 0 36 0;
#X connect 40 1 37 0;
#X connect 40 2 38 0;
#X connect 40 3 39 0;
#X connect 41 0 52 1;
#X connect 41 1 3 0;
#X connect 41 2 45 0;
#X connect 42 0 51 1;
#X connect 42 1 2 0;
#X connect 42 2 45 0;
#X connect 43 0 50 1;
#X connect 43 1 4 0;
#X connect 43 2 45 0;
#X connect 44 0 49 1;
#X connect 44 1 5 0;
#X connect 44 2 45 0;
#X connect 45 0 53 0;
#X connect 45 1 47 0;
#X connect 45 2 46 0;
#X connect 46 0 54 2;
#X connect 47 0 75 0;
#X connect 48 0 54 1;
#X connect 53 0 54 0;
#X connect 54 0 55 0;
#X connect 60 0 57 0;
#X connect 60 1 59 0;
#X connect 61 2 6 0;
#X connect 61 3 1 0;
#X connect 61 4 63 0;
#X connect 63 0 62 0;
#X connect 64 0 41 0;
#X connect 65 0 42 0;
#X connect 66 0 43 0;
#X connect 67 0 44 0;
#X connect 68 0 25 0;
#X connect 69 0 26 0;
#X connect 70 0 27 0;
#X connect 71 0 28 0;
#X connect 72 0 11 0;
#X connect 72 1 73 0;
#X connect 74 0 12 0;
#X connect 75 0 48 0;
#X connect 76 0 78 0;
#X connect 76 1 40 0;
#X connect 76 2 34 0;
#X connect 78 0 56 0;
#X connect 78 1 58 0;
#X connect 78 2 77 0;
#X restore 337 248 pd try_create_piece;
#X text 137 503 #line;
#X obj 179 15 inlet;
#X obj 109 28 bng 15 250 50 0 empty empty empty 0 -6 0 8 -262144 -1
-1;
#X obj 284 19 inlet;
#X obj 340 69 r startnewgame;
#X obj 343 41 loadbang;
#X obj 324 599 spigot 1;
#X obj 554 427 music;
#X connect 0 0 2 0;
#X connect 1 0 0 0;
#X connect 2 0 14 0;
#X connect 2 1 17 0;
#X connect 5 0 6 0;
#X connect 5 1 6 1;
#X connect 6 0 9 0;
#X connect 6 1 12 0;
#X connect 9 0 6 0;
#X connect 12 0 1 0;
#X connect 12 1 13 0;
#X connect 13 0 24 0;
#X connect 14 0 13 0;
#X connect 14 1 5 0;
#X connect 17 0 14 0;
#X connect 17 1 1 0;
#X connect 19 0 0 0;
#X connect 20 0 0 0;
#X connect 22 0 0 0;
#X connect 23 0 0 0;
#X connect 24 0 2 0;
