#N canvas 137 143 578 411 12;
#X obj 114 67 inlet;
#X obj 265 37 inlet;
#X obj 265 72 select 0 1 2;
#X msg 209 125 0 1;
#X msg 253 124 -1 0;
#X msg 308 125 1 0;
#X obj 248 176 unpack f f;
#X obj 154 247 +;
#X obj 231 250 +;
#X obj 114 122 unpack f f;
#X obj 161 281 pack f f;
#X msg 161 308 \$1 \$2;
#X obj 161 333 outlet;
#X connect 0 0 9 0;
#X connect 1 0 2 0;
#X connect 2 0 3 0;
#X connect 2 1 4 0;
#X connect 2 2 5 0;
#X connect 3 0 6 0;
#X connect 4 0 6 0;
#X connect 5 0 6 0;
#X connect 6 0 7 1;
#X connect 6 1 8 1;
#X connect 7 0 10 0;
#X connect 8 0 10 1;
#X connect 9 0 7 0;
#X connect 9 1 8 0;
#X connect 10 0 11 0;
#X connect 11 0 12 0;
