#N canvas 57 110 743 514 12;
#X obj 207 490 dac~;
#X obj 163 359 track track1score 37 100 5 80;
#X obj 11 23 table track1score 74;
#X msg 183 23 \; track1score 0 76 4 71 2 72 2 74 4 72 2 71 2 69 4 69
2 72 2 76 4 74 2 72 2 71 6 72 2 74 4 76 4 72 4 69 4 69 10 74 4 77 2
81 4 79 2 77 2 76 6 72 2 76 4 74 2 72 2 71 4 71 2 72 2 74 4 76 4 72
4 69 4 69 8;
#X obj 453 300 t b b;
#X obj 451 264 bng 15 250 50 0 empty empty empty 0 -6 0 8 -262144 -1
-1;
#X obj 161 407 *~ 0.5;
#X obj 409 418 *~ 0.5;
#X obj 498 344 bng 15 250 50 0 empty empty empty 0 -6 0 8 -262144 -1
-1;
#X msg 196 131 \; track3score 0 40 2 52 2 40 2 52 2 40 2 52 2 40 2
52 2 45 2 57 2 45 2 57 2 45 2 57 2 45 2 57 2 44 2 56 2 44 2 56 2 40
2 52 2 40 2 52 2 45 2 57 2 45 2 57 2 45 2 57 2 47 2 48 2 50 2 38 2
0 2 38 2 0 2 38 2 45 2 41 2 36 2 48 2 0 2 48 2 36 2 43 2 0 2 43 2 47
2 59 2 0 2 59 2 0 2 52 2 0 2 56 2 45 2 52 2 45 2 52 2 45 2 0 6;
#X obj 19 128 table track3score 124;
#X obj 406 378 track track3score 62 100 5 80;
#X obj 518 259 r startmusic;
#X obj 46 283 loadbang;
#X obj 253 433 r musicvolume;
#X obj 502 469 s musicvolumeslider;
#X obj 499 416 loadbang;
#X msg 497 443 0.2;
#X obj 213 465 *~ 1;
#X connect 1 0 6 0;
#X connect 4 0 1 0;
#X connect 4 1 11 0;
#X connect 5 0 4 0;
#X connect 6 0 18 0;
#X connect 7 0 18 0;
#X connect 8 0 11 0;
#X connect 11 0 7 0;
#X connect 12 0 4 0;
#X connect 13 0 9 0;
#X connect 13 0 3 0;
#X connect 14 0 18 1;
#X connect 16 0 17 0;
#X connect 17 0 15 0;
#X connect 18 0 0 1;
#X connect 18 0 0 0;
