#N canvas 144 102 572 505 12;
#X obj 158 15 inlet;
#X obj 164 71 unpack f f;
#X obj 359 175 * \$1;
#X obj 295 375 vline~;
#X msg 295 352 0 \, 1 \$1 \, 0 \$2 \$3;
#X obj 335 285 f \$2;
#X obj 437 288 - \$3;
#X obj 359 209 t b b f;
#X obj 386 284 f \$3;
#X obj 335 310 pack f f f;
#X obj 271 413 *~;
#X obj 70 286 mtof;
#X obj 272 442 outlet~;
#X obj 181 38 print note;
#X obj 64 328 phasor~;
#X obj 66 368 -~ 0.5;
#X obj 365 90 f;
#X obj 120 186 f;
#X obj 137 100 t b f;
#X obj 136 126 t b b;
#X obj 120 222 t f f;
#X obj 157 255 > 0;
#X obj 359 135 spigot;
#X connect 0 0 1 0;
#X connect 0 0 13 0;
#X connect 1 0 18 0;
#X connect 1 1 16 1;
#X connect 2 0 7 0;
#X connect 3 0 10 1;
#X connect 4 0 3 0;
#X connect 5 0 9 0;
#X connect 6 0 9 2;
#X connect 7 0 5 0;
#X connect 7 1 8 0;
#X connect 7 2 6 0;
#X connect 8 0 9 1;
#X connect 9 0 4 0;
#X connect 10 0 12 0;
#X connect 11 0 14 0;
#X connect 14 0 15 0;
#X connect 15 0 10 0;
#X connect 16 0 22 0;
#X connect 17 0 20 0;
#X connect 18 0 19 0;
#X connect 18 1 17 1;
#X connect 19 0 16 0;
#X connect 19 1 17 0;
#X connect 20 0 11 0;
#X connect 20 1 21 0;
#X connect 21 0 22 1;
#X connect 22 0 2 0;
