#N canvas 162 219 794 384 12;
#X obj 107 29 inlet;
#X obj 108 79 route 0 1 2 3;
#X obj 150 289 outlet;
#X msg 45 126 -2 0 -1 0 0 0 -1 -1;
#X msg 94 156 -1 0 0 -1 0 0 0 1;
#X msg 213 128 -1 -1 0 -1 1 -1 0 0;
#X msg 263 159 -1 -2 -1 -1 -1 0 0 -1;
#X connect 0 0 1 0;
#X connect 1 0 3 0;
#X connect 1 1 4 0;
#X connect 1 2 5 0;
#X connect 1 3 6 0;
#X connect 3 0 2 0;
#X connect 4 0 2 0;
#X connect 5 0 2 0;
#X connect 6 0 2 0;
