#N canvas 0 0 466 316 12;
#X obj 137 57 inlet;
#X obj 137 94 route 1 2 3 4 5 6 7;
#X obj 32 167 piece1;
#X obj 143 167 piece3;
#X obj 199 167 piece4;
#X obj 313 168 piece6;
#X obj 368 168 piece7;
#X obj 192 250 outlet;
#X obj 87 167 piece2;
#X obj 255 168 piece5;
#X connect 0 0 1 0;
#X connect 1 0 2 0;
#X connect 1 1 8 0;
#X connect 1 2 3 0;
#X connect 1 3 4 0;
#X connect 1 4 9 0;
#X connect 1 5 5 0;
#X connect 1 6 6 0;
#X connect 2 0 7 0;
#X connect 3 0 7 0;
#X connect 4 0 7 0;
#X connect 5 0 7 0;
#X connect 6 0 7 0;
#X connect 8 0 7 0;
#X connect 9 0 7 0;
