#N canvas 162 219 786 376 12;
#X msg 57 129 -2 0 -1 0 0 0 1 0;
#X msg 109 162 0 -2 0 -1 0 0 0 1;
#X msg 213 128 -2 -1 -1 -1 0 -1 1 -1;
#X msg 263 159 -1 -2 -1 -1 -1 0 -1 1;
#X obj 107 29 inlet;
#X obj 108 79 route 0 1 2 3;
#X obj 150 289 outlet;
#X connect 0 0 6 0;
#X connect 1 0 6 0;
#X connect 2 0 6 0;
#X connect 3 0 6 0;
#X connect 4 0 5 0;
#X connect 5 0 0 0;
#X connect 5 1 1 0;
#X connect 5 2 2 0;
#X connect 5 3 3 0;
