#N canvas 81 21 727 598 12;
#X obj 93 25 inlet;
#X obj 409 47 inlet;
#X obj 170 205 tabwrite boxes_x;
#X obj 222 238 tabwrite boxes_y;
#X obj 164 125 unpack f f;
#X obj 212 164 t f f;
#X obj 131 166 t f f;
#X obj 53 350 *;
#X obj 115 389 *;
#X obj 102 337 v boxsize;
#X obj 307 126 t f f f;
#X obj 114 440 +;
#X obj 54 438 +;
#X obj 155 376 v xoffset;
#X obj 241 375 v yoffset;
#X obj 98 75 t a b b b;
#X obj 512 314 makefilename square%d;
#X msg 75 536 \; \$3 pos \$1 \$2;
#X obj 79 498 pack f f s;
#X connect 0 0 15 0;
#X connect 1 0 10 0;
#X connect 4 0 6 0;
#X connect 4 1 5 0;
#X connect 5 0 8 0;
#X connect 5 1 3 0;
#X connect 6 0 7 0;
#X connect 6 1 2 0;
#X connect 7 0 12 0;
#X connect 8 0 11 0;
#X connect 9 0 8 1;
#X connect 9 0 7 1;
#X connect 10 0 2 1;
#X connect 10 1 3 1;
#X connect 10 2 16 0;
#X connect 11 0 18 1;
#X connect 12 0 18 0;
#X connect 13 0 12 1;
#X connect 14 0 11 1;
#X connect 15 0 4 0;
#X connect 15 1 9 0;
#X connect 15 2 13 0;
#X connect 15 3 14 0;
#X connect 16 0 18 2;
#X connect 18 0 17 0;
