#N canvas 166 47 721 524 12;
#X obj 189 29 inlet;
#X msg 189 67 0;
#X obj 190 107 f;
#X obj 254 79 + 1;
#X obj 190 156 * 2;
#X obj 189 189 t f f;
#X obj 195 321 tabread \$1;
#X obj 254 116 % \$2;
#X obj 224 212 + 1;
#X obj 224 244 tabread \$1;
#X obj 195 350 pack f f;
#X obj 195 374 t b a;
#X obj 233 472 outlet~;
#X obj 150 496 delay;
#X obj 231 284 t f f;
#X obj 401 182 r pausemusic;
#X obj 401 223 tgl 15 0 empty empty empty 0 -6 0 8 -262144 -1 -1 0
1;
#X obj 401 252 select 1 0;
#X msg 379 307 stop;
#X msg 430 307 bang;
#X obj 510 183 r stopmusic;
#X obj 231 404 note \$3 \$4 \$5;
#X obj 191 442 * \$3;
#X connect 0 0 1 0;
#X connect 1 0 2 0;
#X connect 2 0 3 0;
#X connect 2 0 4 0;
#X connect 3 0 7 0;
#X connect 4 0 5 0;
#X connect 5 0 6 0;
#X connect 5 1 8 0;
#X connect 6 0 10 0;
#X connect 7 0 2 1;
#X connect 8 0 9 0;
#X connect 9 0 14 0;
#X connect 10 0 11 0;
#X connect 11 0 13 0;
#X connect 11 1 21 0;
#X connect 13 0 2 0;
#X connect 14 0 10 1;
#X connect 14 1 22 0;
#X connect 15 0 16 0;
#X connect 16 0 17 0;
#X connect 17 0 18 0;
#X connect 17 1 19 0;
#X connect 18 0 13 0;
#X connect 19 0 13 0;
#X connect 20 0 18 0;
#X connect 21 0 12 0;
#X connect 22 0 13 1;
