#N canvas 122 1 625 669 12;
#X obj 138 11 inlet;
#X obj 115 108 get_currentpiece_boxes;
#X obj 198 76 t f f f f;
#X obj 108 181 get_box_position;
#X obj 148 228 get_box_position;
#X obj 247 180 get_box_position;
#X obj 289 229 get_box_position;
#X obj 284 287 t a a;
#X obj 238 288 t a a;
#X obj 165 286 t a a;
#X obj 99 288 t a a;
#X obj 92 144 t f f;
#X obj 146 143 t f f;
#X obj 214 145 t f f;
#X obj 287 134 t f f;
#X obj 82 318 get_occupying_box;
#X obj 146 345 get_occupying_box;
#X obj 227 317 get_occupying_box;
#X obj 291 344 get_occupying_box;
#X obj 291 387 == -1;
#X obj 230 387 == -1;
#X obj 152 385 == -1;
#X obj 91 385 == -1;
#X obj 173 423 and4;
#X obj 138 48 t b b f;
#X obj 192 625 outlet;
#X obj 90 527 hold2;
#X obj 169 528 hold2;
#X obj 242 529 hold2;
#X obj 321 530 hold2;
#X obj 148 452 t f f;
#X obj 184 476 select 1;
#X obj 183 502 t b b b b;
#X obj 102 557 set_box_position;
#X obj 140 583 set_box_position;
#X obj 243 553 set_box_position;
#X obj 281 579 set_box_position;
#X obj 107 206 movebox;
#X obj 247 205 movebox;
#X obj 148 258 movebox;
#X obj 288 257 movebox;
#X connect 0 0 24 0;
#X connect 1 0 11 0;
#X connect 1 1 12 0;
#X connect 1 2 13 0;
#X connect 1 3 14 0;
#X connect 2 0 37 1;
#X connect 2 1 39 1;
#X connect 2 2 38 1;
#X connect 2 3 40 1;
#X connect 3 0 37 0;
#X connect 4 0 39 0;
#X connect 5 0 38 0;
#X connect 6 0 40 0;
#X connect 7 0 18 0;
#X connect 7 1 29 1;
#X connect 8 0 17 0;
#X connect 8 1 28 1;
#X connect 9 0 16 0;
#X connect 9 1 27 1;
#X connect 10 0 15 0;
#X connect 10 1 26 1;
#X connect 11 0 3 0;
#X connect 11 1 33 1;
#X connect 12 0 4 0;
#X connect 12 1 34 1;
#X connect 13 0 5 0;
#X connect 13 1 35 1;
#X connect 14 0 6 0;
#X connect 14 1 36 1;
#X connect 15 0 22 0;
#X connect 16 0 21 0;
#X connect 17 0 20 0;
#X connect 18 0 19 0;
#X connect 19 0 23 3;
#X connect 20 0 23 2;
#X connect 21 0 23 1;
#X connect 22 0 23 0;
#X connect 23 0 30 0;
#X connect 24 1 1 0;
#X connect 24 2 2 0;
#X connect 26 0 33 0;
#X connect 27 0 34 0;
#X connect 28 0 35 0;
#X connect 29 0 36 0;
#X connect 30 0 25 0;
#X connect 30 1 31 0;
#X connect 31 0 32 0;
#X connect 32 0 26 0;
#X connect 32 1 27 0;
#X connect 32 2 28 0;
#X connect 32 3 29 0;
#X connect 37 0 10 0;
#X connect 38 0 8 0;
#X connect 39 0 9 0;
#X connect 40 0 7 0;
