#N canvas 52 0 885 681 12;
#X obj 61 3 inlet;
#X obj 296 358 t a a;
#X obj 231 358 t a a;
#X obj 158 356 t a a;
#X obj 92 358 t a a;
#X obj 78 383 get_occupying_box;
#X obj 142 410 get_occupying_box;
#X obj 223 382 get_occupying_box;
#X obj 287 409 get_occupying_box;
#X obj 287 452 == -1;
#X obj 226 452 == -1;
#X obj 148 450 == -1;
#X obj 87 450 == -1;
#X obj 170 475 and4;
#X obj 186 690 outlet;
#X obj 87 579 hold2;
#X obj 166 580 hold2;
#X obj 239 581 hold2;
#X obj 318 582 hold2;
#X obj 181 528 select 1;
#X obj 94 623 set_box_position;
#X obj 132 649 set_box_position;
#X obj 235 619 set_box_position;
#X obj 273 645 set_box_position;
#X obj 61 60 v currentpiece_rotation;
#X obj 296 6 + 1;
#X obj 403 177 f;
#X obj 297 55 t f f;
#X obj 180 554 t b b b b b;
#X obj 271 80 t b f;
#X obj 207 108 v currentpiece_type;
#X obj 205 184 piece;
#X obj 206 135 pack f f;
#X msg 205 160 \$1 \$2;
#X obj 161 227 unpack f f f f f f f f;
#X obj 87 308 pack f f;
#X obj 161 307 pack f f;
#X obj 239 309 pack f f;
#X obj 319 311 pack f f;
#X obj 145 504 t f f f;
#X obj 446 548 print try_rotatepiece;
#X obj 13 144 print currentrotation;
#X obj 188 206 t a a;
#X obj 598 250 print rotated_piece_setup;
#X obj 61 29 t b b;
#X obj 439 36 get_currentpiece_boxes;
#X obj 439 67 get_box_position;
#X obj 439 96 unpack f f;
#X obj 627 42 v currentpiece_type;
#X obj 668 68 v currentpiece_rotation;
#X obj 629 106 pack f f;
#X obj 624 185 unpack f f f f f f f f;
#X obj 463 199 -;
#X obj 507 199 -;
#X obj 561 10 t b b b;
#X obj 111 278 +;
#X obj 144 278 +;
#X obj 178 277 +;
#X obj 211 277 +;
#X obj 243 277 +;
#X obj 276 277 +;
#X obj 307 277 +;
#X obj 340 277 +;
#X msg 622 132 \$1 \$2;
#X msg 85 334 \$1 \$2;
#X msg 161 332 \$1 \$2;
#X msg 236 335 \$1 \$2;
#X msg 309 335 \$1 \$2;
#X obj 294 31 % 4;
#X obj 429 614 print new_box_positions;
#X obj 624 157 piece;
#X connect 0 0 44 0;
#X connect 1 0 8 0;
#X connect 1 1 18 1;
#X connect 2 0 7 0;
#X connect 2 1 17 1;
#X connect 3 0 6 0;
#X connect 3 1 16 1;
#X connect 4 0 5 0;
#X connect 4 1 15 1;
#X connect 5 0 12 0;
#X connect 6 0 11 0;
#X connect 7 0 10 0;
#X connect 8 0 9 0;
#X connect 9 0 13 3;
#X connect 10 0 13 2;
#X connect 11 0 13 1;
#X connect 12 0 13 0;
#X connect 13 0 39 0;
#X connect 15 0 20 0;
#X connect 15 0 69 0;
#X connect 16 0 21 0;
#X connect 16 0 69 0;
#X connect 17 0 22 0;
#X connect 17 0 69 0;
#X connect 18 0 23 0;
#X connect 18 0 69 0;
#X connect 19 0 28 0;
#X connect 24 0 25 0;
#X connect 24 0 41 0;
#X connect 25 0 68 0;
#X connect 26 0 24 0;
#X connect 27 0 29 0;
#X connect 27 1 26 1;
#X connect 28 0 15 0;
#X connect 28 1 16 0;
#X connect 28 2 17 0;
#X connect 28 3 18 0;
#X connect 28 4 26 0;
#X connect 29 0 30 0;
#X connect 29 1 32 1;
#X connect 30 0 32 0;
#X connect 31 0 42 0;
#X connect 32 0 33 0;
#X connect 33 0 31 0;
#X connect 34 0 55 0;
#X connect 34 1 56 0;
#X connect 34 2 57 0;
#X connect 34 3 58 0;
#X connect 34 4 59 0;
#X connect 34 5 60 0;
#X connect 34 6 61 0;
#X connect 34 7 62 0;
#X connect 35 0 64 0;
#X connect 36 0 65 0;
#X connect 37 0 66 0;
#X connect 38 0 67 0;
#X connect 39 0 14 0;
#X connect 39 1 19 0;
#X connect 39 2 40 0;
#X connect 42 0 34 0;
#X connect 42 1 43 0;
#X connect 44 0 24 0;
#X connect 44 1 54 0;
#X connect 45 0 46 0;
#X connect 45 0 20 1;
#X connect 45 1 21 1;
#X connect 45 2 22 1;
#X connect 45 3 23 1;
#X connect 46 0 47 0;
#X connect 47 0 52 0;
#X connect 47 1 53 0;
#X connect 48 0 50 0;
#X connect 49 0 50 1;
#X connect 50 0 63 0;
#X connect 51 0 52 1;
#X connect 51 1 53 1;
#X connect 52 0 55 1;
#X connect 52 0 57 1;
#X connect 52 0 59 1;
#X connect 52 0 61 1;
#X connect 53 0 56 1;
#X connect 53 0 58 1;
#X connect 53 0 60 1;
#X connect 53 0 62 1;
#X connect 54 0 45 0;
#X connect 54 1 48 0;
#X connect 54 2 49 0;
#X connect 55 0 35 0;
#X connect 56 0 35 1;
#X connect 57 0 36 0;
#X connect 58 0 36 1;
#X connect 59 0 37 0;
#X connect 60 0 37 1;
#X connect 61 0 38 0;
#X connect 62 0 38 1;
#X connect 63 0 70 0;
#X connect 64 0 4 0;
#X connect 65 0 3 0;
#X connect 66 0 2 0;
#X connect 67 0 1 0;
#X connect 68 0 27 0;
#X connect 70 0 51 0;
